<mxfile host="app.diagrams.net" modified="2023-05-31T16:05:10.984Z" agent="Mozilla/5.0 (Windows NT 10.0; Win64; x64) AppleWebKit/537.36 (KHTML, like Gecko) Chrome/113.0.0.0 Safari/537.36" etag="m_6ie2ntuU-FxL1VIErm" version="21.3.6" type="device">
  <diagram name="第 1 页" id="LiZ3iYMOqKjCGAp-GsME">
    <mxGraphModel dx="797" dy="397" grid="1" gridSize="10" guides="1" tooltips="1" connect="1" arrows="1" fold="1" page="1" pageScale="1" pageWidth="827" pageHeight="1169" math="0" shadow="0">
      <root>
        <mxCell id="0" />
        <mxCell id="1" parent="0" />
        <mxCell id="s6eONZub3boXzo9smcJJ-70" value="" style="endArrow=classic;html=1;rounded=0;entryX=0.383;entryY=0.992;entryDx=0;entryDy=0;exitX=0.998;exitY=0.629;exitDx=0;exitDy=0;exitPerimeter=0;entryPerimeter=0;" parent="1" target="8nJKbW5OtbYwvpEegRZs-2" edge="1" source="s6eONZub3boXzo9smcJJ-3">
          <mxGeometry width="50" height="50" relative="1" as="geometry">
            <mxPoint x="430" y="370" as="sourcePoint" />
            <mxPoint x="480" y="320" as="targetPoint" />
            <Array as="points">
              <mxPoint x="410" y="380" />
            </Array>
          </mxGeometry>
        </mxCell>
        <mxCell id="s6eONZub3boXzo9smcJJ-72" value="客服答覆" style="edgeLabel;html=1;align=center;verticalAlign=middle;resizable=0;points=[];" parent="s6eONZub3boXzo9smcJJ-70" vertex="1" connectable="0">
          <mxGeometry x="-0.4455" y="-1" relative="1" as="geometry">
            <mxPoint x="4" y="-11" as="offset" />
          </mxGeometry>
        </mxCell>
        <mxCell id="s6eONZub3boXzo9smcJJ-73" value="" style="endArrow=classic;html=1;rounded=0;entryX=1.007;entryY=0.378;entryDx=0;entryDy=0;exitX=0.257;exitY=0.937;exitDx=0;exitDy=0;exitPerimeter=0;entryPerimeter=0;" parent="1" target="s6eONZub3boXzo9smcJJ-3" edge="1" source="8nJKbW5OtbYwvpEegRZs-2">
          <mxGeometry width="50" height="50" relative="1" as="geometry">
            <mxPoint x="413" y="280" as="sourcePoint" />
            <mxPoint x="413" y="330" as="targetPoint" />
            <Array as="points">
              <mxPoint x="400" y="360" />
            </Array>
          </mxGeometry>
        </mxCell>
        <mxCell id="s6eONZub3boXzo9smcJJ-74" value="客服表單" style="edgeLabel;html=1;align=center;verticalAlign=middle;resizable=0;points=[];" parent="s6eONZub3boXzo9smcJJ-73" vertex="1" connectable="0">
          <mxGeometry x="0.1043" y="-2" relative="1" as="geometry">
            <mxPoint x="-25" y="-8" as="offset" />
          </mxGeometry>
        </mxCell>
        <mxCell id="s6eONZub3boXzo9smcJJ-22" value="" style="endArrow=classic;html=1;rounded=0;entryX=0.998;entryY=0.38;entryDx=0;entryDy=0;entryPerimeter=0;exitX=0.375;exitY=0.025;exitDx=0;exitDy=0;exitPerimeter=0;" parent="1" source="8nJKbW5OtbYwvpEegRZs-2" edge="1" target="8nJKbW5OtbYwvpEegRZs-1">
          <mxGeometry width="50" height="50" relative="1" as="geometry">
            <mxPoint x="440" y="210" as="sourcePoint" />
            <mxPoint x="200" y="80" as="targetPoint" />
            <Array as="points">
              <mxPoint x="410" y="140" />
              <mxPoint x="410" y="80" />
              <mxPoint x="390" y="80" />
              <mxPoint x="290" y="80" />
            </Array>
          </mxGeometry>
        </mxCell>
        <mxCell id="s6eONZub3boXzo9smcJJ-23" value="客服之答覆" style="edgeLabel;html=1;align=center;verticalAlign=middle;resizable=0;points=[];" parent="s6eONZub3boXzo9smcJJ-22" vertex="1" connectable="0">
          <mxGeometry x="0.7537" y="-1" relative="1" as="geometry">
            <mxPoint x="28" y="-9" as="offset" />
          </mxGeometry>
        </mxCell>
        <mxCell id="s6eONZub3boXzo9smcJJ-16" value="" style="endArrow=classic;html=1;rounded=0;entryX=0.018;entryY=0.624;entryDx=0;entryDy=0;entryPerimeter=0;exitX=0.308;exitY=1.004;exitDx=0;exitDy=0;exitPerimeter=0;" parent="1" source="8nJKbW5OtbYwvpEegRZs-1" target="8nJKbW5OtbYwvpEegRZs-2" edge="1">
          <mxGeometry width="50" height="50" relative="1" as="geometry">
            <mxPoint x="174" y="150" as="sourcePoint" />
            <mxPoint x="384.32000000000005" y="230.16000000000003" as="targetPoint" />
            <Array as="points">
              <mxPoint x="224" y="190" />
              <mxPoint x="224" y="250" />
              <mxPoint x="290" y="250" />
            </Array>
          </mxGeometry>
        </mxCell>
        <mxCell id="s6eONZub3boXzo9smcJJ-17" value="刊登委託" style="edgeLabel;html=1;align=center;verticalAlign=middle;resizable=0;points=[];" parent="s6eONZub3boXzo9smcJJ-16" vertex="1" connectable="0">
          <mxGeometry x="0.2778" y="2" relative="1" as="geometry">
            <mxPoint x="39" y="-8" as="offset" />
          </mxGeometry>
        </mxCell>
        <mxCell id="s6eONZub3boXzo9smcJJ-18" style="edgeStyle=orthogonalEdgeStyle;rounded=0;orthogonalLoop=1;jettySize=auto;html=1;entryX=0.155;entryY=0.127;entryDx=0;entryDy=0;entryPerimeter=0;" parent="1" source="8nJKbW5OtbYwvpEegRZs-1" target="8nJKbW5OtbYwvpEegRZs-2" edge="1">
          <mxGeometry relative="1" as="geometry">
            <mxPoint x="380" y="210" as="targetPoint" />
            <Array as="points">
              <mxPoint x="260" y="210" />
            </Array>
          </mxGeometry>
        </mxCell>
        <mxCell id="s6eONZub3boXzo9smcJJ-19" value="委託費用" style="edgeLabel;html=1;align=center;verticalAlign=middle;resizable=0;points=[];" parent="s6eONZub3boXzo9smcJJ-18" vertex="1" connectable="0">
          <mxGeometry x="0.2053" y="3" relative="1" as="geometry">
            <mxPoint x="12" y="-7" as="offset" />
          </mxGeometry>
        </mxCell>
        <mxCell id="8nJKbW5OtbYwvpEegRZs-1" value="委託人" style="whiteSpace=wrap;html=1;aspect=fixed;" parent="1" vertex="1">
          <mxGeometry x="200" y="50" width="80" height="80" as="geometry" />
        </mxCell>
        <mxCell id="s6eONZub3boXzo9smcJJ-6" style="edgeStyle=orthogonalEdgeStyle;rounded=0;orthogonalLoop=1;jettySize=auto;html=1;" parent="1" source="8nJKbW5OtbYwvpEegRZs-2" edge="1">
          <mxGeometry relative="1" as="geometry">
            <mxPoint x="280" y="100" as="targetPoint" />
            <Array as="points">
              <mxPoint x="400" y="100" />
            </Array>
            <mxPoint x="408" y="201.27016653792583" as="sourcePoint" />
          </mxGeometry>
        </mxCell>
        <mxCell id="s6eONZub3boXzo9smcJJ-9" value="輸出的資料" style="edgeLabel;html=1;align=center;verticalAlign=middle;resizable=0;points=[];" parent="s6eONZub3boXzo9smcJJ-6" vertex="1" connectable="0">
          <mxGeometry x="0.0676" y="2" relative="1" as="geometry">
            <mxPoint x="-47" y="-12" as="offset" />
          </mxGeometry>
        </mxCell>
        <mxCell id="s6eONZub3boXzo9smcJJ-1" value="受託人" style="whiteSpace=wrap;html=1;aspect=fixed;" parent="1" vertex="1">
          <mxGeometry x="560" y="60" width="80" height="80" as="geometry" />
        </mxCell>
        <mxCell id="s6eONZub3boXzo9smcJJ-3" value="客服部門" style="whiteSpace=wrap;html=1;aspect=fixed;" parent="1" vertex="1">
          <mxGeometry x="200" y="330" width="80" height="80" as="geometry" />
        </mxCell>
        <mxCell id="s6eONZub3boXzo9smcJJ-14" style="edgeStyle=orthogonalEdgeStyle;rounded=0;orthogonalLoop=1;jettySize=auto;html=1;entryX=0.01;entryY=0.372;entryDx=0;entryDy=0;entryPerimeter=0;" parent="1" source="8nJKbW5OtbYwvpEegRZs-1" target="8nJKbW5OtbYwvpEegRZs-2" edge="1">
          <mxGeometry relative="1" as="geometry">
            <mxPoint x="360" y="250" as="targetPoint" />
            <Array as="points">
              <mxPoint x="240" y="230" />
              <mxPoint x="360" y="230" />
            </Array>
          </mxGeometry>
        </mxCell>
        <mxCell id="s6eONZub3boXzo9smcJJ-15" value="個人資料" style="edgeLabel;html=1;align=center;verticalAlign=middle;resizable=0;points=[];" parent="s6eONZub3boXzo9smcJJ-14" vertex="1" connectable="0">
          <mxGeometry x="0.4952" relative="1" as="geometry">
            <mxPoint y="-10" as="offset" />
          </mxGeometry>
        </mxCell>
        <mxCell id="s6eONZub3boXzo9smcJJ-29" value="" style="endArrow=classic;html=1;rounded=0;entryX=0.169;entryY=0.877;entryDx=0;entryDy=0;entryPerimeter=0;exitX=0.129;exitY=1.002;exitDx=0;exitDy=0;exitPerimeter=0;" parent="1" target="8nJKbW5OtbYwvpEegRZs-2" edge="1" source="8nJKbW5OtbYwvpEegRZs-1">
          <mxGeometry width="50" height="50" relative="1" as="geometry">
            <mxPoint x="150" y="140" as="sourcePoint" />
            <mxPoint x="150" y="250" as="targetPoint" />
            <Array as="points">
              <mxPoint x="210" y="270" />
              <mxPoint x="280" y="270" />
            </Array>
          </mxGeometry>
        </mxCell>
        <mxCell id="s6eONZub3boXzo9smcJJ-32" value="客服表單" style="edgeLabel;html=1;align=center;verticalAlign=middle;resizable=0;points=[];" parent="s6eONZub3boXzo9smcJJ-29" vertex="1" connectable="0">
          <mxGeometry x="-0.1659" relative="1" as="geometry">
            <mxPoint x="110" y="-6" as="offset" />
          </mxGeometry>
        </mxCell>
        <mxCell id="s6eONZub3boXzo9smcJJ-59" style="edgeStyle=orthogonalEdgeStyle;rounded=0;orthogonalLoop=1;jettySize=auto;html=1;exitX=1;exitY=1;exitDx=0;exitDy=0;" parent="1" source="8nJKbW5OtbYwvpEegRZs-2" edge="1">
          <mxGeometry relative="1" as="geometry">
            <mxPoint x="448.1428571428571" y="268.1428571428571" as="targetPoint" />
          </mxGeometry>
        </mxCell>
        <mxCell id="c1yQP-HVC2oCeXCPbFiV-22" style="edgeStyle=orthogonalEdgeStyle;rounded=0;orthogonalLoop=1;jettySize=auto;html=1;entryX=0;entryY=0.25;entryDx=0;entryDy=0;" edge="1" parent="1" source="8nJKbW5OtbYwvpEegRZs-2" target="s6eONZub3boXzo9smcJJ-1">
          <mxGeometry relative="1" as="geometry">
            <mxPoint x="420" y="80" as="targetPoint" />
            <Array as="points">
              <mxPoint x="420" y="80" />
            </Array>
          </mxGeometry>
        </mxCell>
        <mxCell id="c1yQP-HVC2oCeXCPbFiV-26" value="客服之答覆" style="edgeLabel;html=1;align=center;verticalAlign=middle;resizable=0;points=[];" vertex="1" connectable="0" parent="c1yQP-HVC2oCeXCPbFiV-22">
          <mxGeometry x="0.3227" relative="1" as="geometry">
            <mxPoint x="12" y="-10" as="offset" />
          </mxGeometry>
        </mxCell>
        <mxCell id="c1yQP-HVC2oCeXCPbFiV-24" style="edgeStyle=orthogonalEdgeStyle;rounded=0;orthogonalLoop=1;jettySize=auto;html=1;entryX=0;entryY=0.5;entryDx=0;entryDy=0;exitX=0.63;exitY=0.01;exitDx=0;exitDy=0;exitPerimeter=0;" edge="1" parent="1" source="8nJKbW5OtbYwvpEegRZs-2" target="s6eONZub3boXzo9smcJJ-1">
          <mxGeometry relative="1" as="geometry">
            <Array as="points">
              <mxPoint x="430" y="100" />
            </Array>
          </mxGeometry>
        </mxCell>
        <mxCell id="c1yQP-HVC2oCeXCPbFiV-27" value="委託相關資料" style="edgeLabel;html=1;align=center;verticalAlign=middle;resizable=0;points=[];" vertex="1" connectable="0" parent="c1yQP-HVC2oCeXCPbFiV-24">
          <mxGeometry x="0.2574" relative="1" as="geometry">
            <mxPoint x="10" y="-10" as="offset" />
          </mxGeometry>
        </mxCell>
        <mxCell id="c1yQP-HVC2oCeXCPbFiV-25" style="edgeStyle=orthogonalEdgeStyle;rounded=0;orthogonalLoop=1;jettySize=auto;html=1;entryX=0;entryY=0.75;entryDx=0;entryDy=0;" edge="1" parent="1" source="8nJKbW5OtbYwvpEegRZs-2" target="s6eONZub3boXzo9smcJJ-1">
          <mxGeometry relative="1" as="geometry">
            <Array as="points">
              <mxPoint x="440" y="120" />
            </Array>
          </mxGeometry>
        </mxCell>
        <mxCell id="c1yQP-HVC2oCeXCPbFiV-28" value="委託酬勞" style="edgeLabel;html=1;align=center;verticalAlign=middle;resizable=0;points=[];" vertex="1" connectable="0" parent="c1yQP-HVC2oCeXCPbFiV-25">
          <mxGeometry x="0.2207" relative="1" as="geometry">
            <mxPoint x="6" y="-10" as="offset" />
          </mxGeometry>
        </mxCell>
        <mxCell id="c1yQP-HVC2oCeXCPbFiV-31" style="edgeStyle=orthogonalEdgeStyle;rounded=0;orthogonalLoop=1;jettySize=auto;html=1;entryX=0;entryY=0.5;entryDx=0;entryDy=0;" edge="1" parent="1" source="8nJKbW5OtbYwvpEegRZs-2" target="c1yQP-HVC2oCeXCPbFiV-1">
          <mxGeometry relative="1" as="geometry">
            <Array as="points">
              <mxPoint x="430" y="370" />
            </Array>
          </mxGeometry>
        </mxCell>
        <mxCell id="c1yQP-HVC2oCeXCPbFiV-34" value="委託內容" style="edgeLabel;html=1;align=center;verticalAlign=middle;resizable=0;points=[];" vertex="1" connectable="0" parent="c1yQP-HVC2oCeXCPbFiV-31">
          <mxGeometry x="0.2366" y="1" relative="1" as="geometry">
            <mxPoint x="10" y="-9" as="offset" />
          </mxGeometry>
        </mxCell>
        <mxCell id="c1yQP-HVC2oCeXCPbFiV-32" style="edgeStyle=orthogonalEdgeStyle;rounded=0;orthogonalLoop=1;jettySize=auto;html=1;entryX=0;entryY=0.25;entryDx=0;entryDy=0;" edge="1" parent="1" source="8nJKbW5OtbYwvpEegRZs-2" target="c1yQP-HVC2oCeXCPbFiV-1">
          <mxGeometry relative="1" as="geometry">
            <Array as="points">
              <mxPoint x="440" y="350" />
            </Array>
          </mxGeometry>
        </mxCell>
        <mxCell id="c1yQP-HVC2oCeXCPbFiV-33" value="委託費用抽成" style="edgeLabel;html=1;align=center;verticalAlign=middle;resizable=0;points=[];" vertex="1" connectable="0" parent="c1yQP-HVC2oCeXCPbFiV-32">
          <mxGeometry x="0.221" relative="1" as="geometry">
            <mxPoint x="2" y="-10" as="offset" />
          </mxGeometry>
        </mxCell>
        <mxCell id="8nJKbW5OtbYwvpEegRZs-2" value="0&lt;br&gt;iCrawler" style="ellipse;whiteSpace=wrap;html=1;aspect=fixed;" parent="1" vertex="1">
          <mxGeometry x="380" y="200" width="80" height="80" as="geometry" />
        </mxCell>
        <mxCell id="c1yQP-HVC2oCeXCPbFiV-29" style="edgeStyle=orthogonalEdgeStyle;rounded=0;orthogonalLoop=1;jettySize=auto;html=1;" edge="1" parent="1" source="c1yQP-HVC2oCeXCPbFiV-1" target="8nJKbW5OtbYwvpEegRZs-2">
          <mxGeometry relative="1" as="geometry">
            <mxPoint x="431" y="280" as="targetPoint" />
            <Array as="points">
              <mxPoint x="420" y="390" />
            </Array>
          </mxGeometry>
        </mxCell>
        <mxCell id="c1yQP-HVC2oCeXCPbFiV-35" value="委託相關資料表" style="edgeLabel;html=1;align=center;verticalAlign=middle;resizable=0;points=[];" vertex="1" connectable="0" parent="c1yQP-HVC2oCeXCPbFiV-29">
          <mxGeometry x="-0.2874" y="2" relative="1" as="geometry">
            <mxPoint x="13" y="-12" as="offset" />
          </mxGeometry>
        </mxCell>
        <mxCell id="c1yQP-HVC2oCeXCPbFiV-1" value="平台方" style="whiteSpace=wrap;html=1;aspect=fixed;" vertex="1" parent="1">
          <mxGeometry x="560" y="330" width="80" height="80" as="geometry" />
        </mxCell>
        <mxCell id="c1yQP-HVC2oCeXCPbFiV-13" value="" style="endArrow=classic;html=1;rounded=0;entryX=1;entryY=0;entryDx=0;entryDy=0;exitX=0.135;exitY=1.006;exitDx=0;exitDy=0;exitPerimeter=0;" edge="1" parent="1" source="s6eONZub3boXzo9smcJJ-1" target="8nJKbW5OtbYwvpEegRZs-2">
          <mxGeometry width="50" height="50" relative="1" as="geometry">
            <mxPoint x="610" y="140" as="sourcePoint" />
            <mxPoint x="610" y="210" as="targetPoint" />
            <Array as="points">
              <mxPoint x="571" y="210" />
            </Array>
          </mxGeometry>
        </mxCell>
        <mxCell id="c1yQP-HVC2oCeXCPbFiV-17" value="個人資料" style="edgeLabel;html=1;align=center;verticalAlign=middle;resizable=0;points=[];" vertex="1" connectable="0" parent="c1yQP-HVC2oCeXCPbFiV-13">
          <mxGeometry x="0.2567" relative="1" as="geometry">
            <mxPoint y="-11" as="offset" />
          </mxGeometry>
        </mxCell>
        <mxCell id="c1yQP-HVC2oCeXCPbFiV-14" value="" style="endArrow=classic;html=1;rounded=0;entryX=0.98;entryY=0.38;entryDx=0;entryDy=0;entryPerimeter=0;exitX=0.383;exitY=1;exitDx=0;exitDy=0;exitPerimeter=0;" edge="1" parent="1" source="s6eONZub3boXzo9smcJJ-1" target="8nJKbW5OtbYwvpEegRZs-2">
          <mxGeometry width="50" height="50" relative="1" as="geometry">
            <mxPoint x="630" y="140" as="sourcePoint" />
            <mxPoint x="460" y="230" as="targetPoint" />
            <Array as="points">
              <mxPoint x="590" y="230" />
            </Array>
          </mxGeometry>
        </mxCell>
        <mxCell id="c1yQP-HVC2oCeXCPbFiV-18" value="客服表單" style="edgeLabel;html=1;align=center;verticalAlign=middle;resizable=0;points=[];" vertex="1" connectable="0" parent="c1yQP-HVC2oCeXCPbFiV-14">
          <mxGeometry x="0.5046" relative="1" as="geometry">
            <mxPoint x="7" y="-10" as="offset" />
          </mxGeometry>
        </mxCell>
        <mxCell id="c1yQP-HVC2oCeXCPbFiV-15" value="" style="endArrow=classic;html=1;rounded=0;entryX=0.985;entryY=0.625;entryDx=0;entryDy=0;entryPerimeter=0;exitX=0.617;exitY=0.996;exitDx=0;exitDy=0;exitPerimeter=0;" edge="1" parent="1" source="s6eONZub3boXzo9smcJJ-1" target="8nJKbW5OtbYwvpEegRZs-2">
          <mxGeometry width="50" height="50" relative="1" as="geometry">
            <mxPoint x="650" y="140" as="sourcePoint" />
            <mxPoint x="460" y="250" as="targetPoint" />
            <Array as="points">
              <mxPoint x="610" y="250" />
            </Array>
          </mxGeometry>
        </mxCell>
        <mxCell id="c1yQP-HVC2oCeXCPbFiV-19" value="受託人的規格書" style="edgeLabel;html=1;align=center;verticalAlign=middle;resizable=0;points=[];" vertex="1" connectable="0" parent="c1yQP-HVC2oCeXCPbFiV-15">
          <mxGeometry x="0.5644" relative="1" as="geometry">
            <mxPoint x="4" y="-10" as="offset" />
          </mxGeometry>
        </mxCell>
        <mxCell id="c1yQP-HVC2oCeXCPbFiV-16" value="" style="endArrow=classic;html=1;rounded=0;entryX=0.825;entryY=0.87;entryDx=0;entryDy=0;entryPerimeter=0;exitX=0.871;exitY=1.002;exitDx=0;exitDy=0;exitPerimeter=0;" edge="1" parent="1" source="s6eONZub3boXzo9smcJJ-1" target="8nJKbW5OtbYwvpEegRZs-2">
          <mxGeometry width="50" height="50" relative="1" as="geometry">
            <mxPoint x="670" y="140" as="sourcePoint" />
            <mxPoint x="720" y="90" as="targetPoint" />
            <Array as="points">
              <mxPoint x="630" y="270" />
            </Array>
          </mxGeometry>
        </mxCell>
        <mxCell id="c1yQP-HVC2oCeXCPbFiV-20" value="受委託的資料" style="edgeLabel;html=1;align=center;verticalAlign=middle;resizable=0;points=[];" vertex="1" connectable="0" parent="c1yQP-HVC2oCeXCPbFiV-16">
          <mxGeometry x="0.5367" y="-1" relative="1" as="geometry">
            <mxPoint x="1" y="-9" as="offset" />
          </mxGeometry>
        </mxCell>
      </root>
    </mxGraphModel>
  </diagram>
</mxfile>
